<svg width="345" height="77" viewBox="0 0 345 77" fill="none" xmlns="http://www.w3.org/2000/svg">
<mask id="path-1-inside-1_123_14" fill="white">
<path d="M10.9092 33.6123C10.9092 15.3869 25.6838 0.612305 43.9092 0.612305H300.909C319.135 0.612305 333.909 15.3869 333.909 33.6123V33.6123C333.909 51.8377 319.135 66.6123 300.909 66.6123H43.9092C25.6838 66.6123 10.9092 51.8377 10.9092 33.6123V33.6123Z"/>
</mask>
<path d="M10.9092 33.6123C10.9092 15.3869 25.6838 0.612305 43.9092 0.612305H300.909C319.135 0.612305 333.909 15.3869 333.909 33.6123V33.6123C333.909 51.8377 319.135 66.6123 300.909 66.6123H43.9092C25.6838 66.6123 10.9092 51.8377 10.9092 33.6123V33.6123Z" fill="#F3F8F2"/>
<path d="M10.9092 33.6123C10.9092 4.34121 34.6381 -19.3877 63.9092 -19.3877H280.909C310.18 -19.3877 333.909 4.34121 333.909 33.6123C333.909 26.4326 319.135 20.6123 300.909 20.6123H43.9092C25.6838 20.6123 10.9092 26.4326 10.9092 33.6123ZM333.909 66.6123H10.9092H333.909ZM10.9092 66.6123V0.612305V66.6123ZM333.909 0.612305V66.6123V0.612305Z" fill="#005C99" mask="url(#path-1-inside-1_123_14)"/>
<g opacity="0.25" filter="url(#filter0_f_123_14)">
<mask id="path-3-inside-2_123_14" fill="white">
<path d="M10.9092 42.6323C10.9092 55.8761 21.6454 66.6123 34.8892 66.6123H309.929C323.173 66.6123 333.909 55.8761 333.909 42.6323V42.6323C333.909 29.3885 323.173 18.6523 309.929 18.6523H34.8892C21.6454 18.6523 10.9092 29.3885 10.9092 42.6323V42.6323Z"/>
</mask>
<path d="M10.9092 42.6323C10.9092 55.8761 21.6454 66.6123 34.8892 66.6123H309.929C323.173 66.6123 333.909 55.8761 333.909 42.6323V42.6323C333.909 29.3885 323.173 18.6523 309.929 18.6523H34.8892C21.6454 18.6523 10.9092 29.3885 10.9092 42.6323V42.6323Z" fill="#F3F8F2"/>
<path d="M10.9092 42.6323C10.9092 66.9218 30.5997 86.6123 54.8892 86.6123H289.929C314.219 86.6123 333.909 66.9218 333.909 42.6323C333.909 44.8304 323.173 46.6123 309.929 46.6123H34.8892C21.6454 46.6123 10.9092 44.8304 10.9092 42.6323ZM333.909 18.6523H10.9092H333.909ZM10.9092 18.6523V66.6123V18.6523ZM333.909 66.6123V18.6523V66.6123Z" fill="#005C99" mask="url(#path-3-inside-2_123_14)"/>
</g>
<path d="M139.835 15.6523V7.0625H142.794C143.462 7.0625 143.972 7.10352 144.323 7.18555C144.815 7.29883 145.235 7.50391 145.583 7.80078C146.036 8.18359 146.374 8.67383 146.597 9.27148C146.823 9.86523 146.937 10.5449 146.937 11.3105C146.937 11.9629 146.86 12.541 146.708 13.0449C146.556 13.5488 146.36 13.9668 146.122 14.2988C145.884 14.627 145.622 14.8867 145.337 15.0781C145.056 15.2656 144.714 15.4082 144.312 15.5059C143.913 15.6035 143.454 15.6523 142.935 15.6523H139.835ZM140.972 14.6387H142.806C143.372 14.6387 143.815 14.5859 144.136 14.4805C144.46 14.375 144.718 14.2266 144.909 14.0352C145.179 13.7656 145.388 13.4043 145.536 12.9512C145.689 12.4941 145.765 11.9414 145.765 11.293C145.765 10.3945 145.616 9.70508 145.319 9.22461C145.026 8.74023 144.669 8.41602 144.247 8.25195C143.942 8.13477 143.452 8.07617 142.776 8.07617H140.972V14.6387ZM148.161 11.4688C148.161 10.043 148.544 8.92773 149.31 8.12305C150.075 7.31445 151.064 6.91016 152.274 6.91016C153.067 6.91016 153.782 7.09961 154.419 7.47852C155.056 7.85742 155.54 8.38672 155.872 9.06641C156.208 9.74219 156.376 10.5098 156.376 11.3691C156.376 12.2402 156.2 13.0195 155.849 13.707C155.497 14.3945 154.999 14.916 154.355 15.2715C153.71 15.623 153.015 15.7988 152.269 15.7988C151.46 15.7988 150.737 15.6035 150.101 15.2129C149.464 14.8223 148.982 14.2891 148.653 13.6133C148.325 12.9375 148.161 12.2227 148.161 11.4688ZM149.333 11.4863C149.333 12.5215 149.61 13.3379 150.165 13.9355C150.724 14.5293 151.423 14.8262 152.263 14.8262C153.118 14.8262 153.821 14.5254 154.372 13.9238C154.927 13.3223 155.204 12.4688 155.204 11.3633C155.204 10.6641 155.085 10.0547 154.847 9.53516C154.612 9.01172 154.267 8.60742 153.81 8.32227C153.357 8.0332 152.847 7.88867 152.28 7.88867C151.476 7.88867 150.782 8.16602 150.2 8.7207C149.622 9.27148 149.333 10.1934 149.333 11.4863ZM163.976 12.6406L165.112 12.9277C164.874 13.8613 164.444 14.5742 163.823 15.0664C163.206 15.5547 162.45 15.7988 161.556 15.7988C160.63 15.7988 159.876 15.6113 159.294 15.2363C158.716 14.8574 158.274 14.3105 157.97 13.5957C157.669 12.8809 157.519 12.1133 157.519 11.293C157.519 10.3984 157.689 9.61914 158.028 8.95508C158.372 8.28711 158.858 7.78125 159.487 7.4375C160.12 7.08984 160.815 6.91602 161.573 6.91602C162.433 6.91602 163.155 7.13477 163.741 7.57227C164.327 8.00977 164.735 8.625 164.966 9.41797L163.847 9.68164C163.648 9.05664 163.358 8.60156 162.98 8.31641C162.601 8.03125 162.124 7.88867 161.55 7.88867C160.89 7.88867 160.337 8.04688 159.892 8.36328C159.45 8.67969 159.14 9.10547 158.96 9.64062C158.78 10.1719 158.69 10.7207 158.69 11.2871C158.69 12.0176 158.796 12.6562 159.007 13.2031C159.222 13.7461 159.554 14.1523 160.003 14.4219C160.452 14.6914 160.939 14.8262 161.462 14.8262C162.099 14.8262 162.638 14.6426 163.079 14.2754C163.521 13.9082 163.819 13.3633 163.976 12.6406ZM166.542 15.6523V7.0625H172.753V8.07617H167.679V10.707H172.431V11.7148H167.679V14.6387H172.952V15.6523H166.542ZM174.511 15.6523V7.0625H175.677L180.189 13.8066V7.0625H181.278V15.6523H180.112L175.601 8.90234V15.6523H174.511ZM185.38 15.6523V8.07617H182.55V7.0625H189.358V8.07617H186.517V15.6523H185.38ZM190.554 15.6523V7.0625H196.765V8.07617H191.69V10.707H196.442V11.7148H191.69V14.6387H196.964V15.6523H190.554ZM198.148 12.8926L199.22 12.7988C199.271 13.2285 199.388 13.582 199.571 13.8594C199.759 14.1328 200.048 14.3555 200.439 14.5273C200.829 14.6953 201.269 14.7793 201.757 14.7793C202.19 14.7793 202.573 14.7148 202.905 14.5859C203.237 14.457 203.483 14.2812 203.644 14.0586C203.808 13.832 203.89 13.5859 203.89 13.3203C203.89 13.0508 203.812 12.8164 203.655 12.6172C203.499 12.4141 203.241 12.2441 202.882 12.1074C202.651 12.0176 202.142 11.8789 201.353 11.6914C200.564 11.5 200.011 11.3203 199.694 11.1523C199.284 10.9375 198.978 10.6719 198.774 10.3555C198.575 10.0352 198.476 9.67773 198.476 9.2832C198.476 8.84961 198.599 8.44531 198.845 8.07031C199.091 7.69141 199.45 7.4043 199.923 7.20898C200.396 7.01367 200.921 6.91602 201.499 6.91602C202.136 6.91602 202.696 7.01953 203.181 7.22656C203.669 7.42969 204.044 7.73047 204.306 8.12891C204.567 8.52734 204.708 8.97852 204.728 9.48242L203.638 9.56445C203.579 9.02148 203.38 8.61133 203.04 8.33398C202.704 8.05664 202.206 7.91797 201.546 7.91797C200.858 7.91797 200.357 8.04492 200.04 8.29883C199.728 8.54883 199.571 8.85156 199.571 9.20703C199.571 9.51562 199.683 9.76953 199.905 9.96875C200.124 10.168 200.694 10.373 201.616 10.584C202.542 10.791 203.177 10.9727 203.521 11.1289C204.021 11.3594 204.39 11.6523 204.628 12.0078C204.866 12.3594 204.985 12.7656 204.985 13.2266C204.985 13.6836 204.855 14.1152 204.593 14.5215C204.331 14.9238 203.954 15.2383 203.462 15.4648C202.974 15.6875 202.423 15.7988 201.81 15.7988C201.032 15.7988 200.38 15.6855 199.853 15.459C199.329 15.2324 198.917 14.8926 198.616 14.4395C198.319 13.9824 198.163 13.4668 198.148 12.8926Z" fill="white"/>
<defs>
<filter id="filter0_f_123_14" x="0.712541" y="8.45564" width="343.393" height="68.3534" filterUnits="userSpaceOnUse" color-interpolation-filters="sRGB">
<feFlood flood-opacity="0" result="BackgroundImageFix"/>
<feBlend mode="normal" in="SourceGraphic" in2="BackgroundImageFix" result="shape"/>
<feGaussianBlur stdDeviation="5.09835" result="effect1_foregroundBlur_123_14"/>
</filter>
</defs>
</svg>
