<svg width="345" height="77" viewBox="0 0 345 77" fill="none" xmlns="http://www.w3.org/2000/svg">
<mask id="path-1-inside-1_123_11" fill="white">
<path d="M10.9092 33.1123C10.9092 14.8869 25.6838 0.112305 43.9092 0.112305H300.909C319.135 0.112305 333.909 14.8869 333.909 33.1123V33.1123C333.909 51.3377 319.135 66.1123 300.909 66.1123H43.9092C25.6838 66.1123 10.9092 51.3377 10.9092 33.1123V33.1123Z"/>
</mask>
<path d="M10.9092 33.1123C10.9092 14.8869 25.6838 0.112305 43.9092 0.112305H300.909C319.135 0.112305 333.909 14.8869 333.909 33.1123V33.1123C333.909 51.3377 319.135 66.1123 300.909 66.1123H43.9092C25.6838 66.1123 10.9092 51.3377 10.9092 33.1123V33.1123Z" fill="#F3F8F2"/>
<path d="M10.9092 33.1123C10.9092 3.84121 34.6381 -19.8877 63.9092 -19.8877H280.909C310.18 -19.8877 333.909 3.84121 333.909 33.1123C333.909 25.9326 319.135 20.1123 300.909 20.1123H43.9092C25.6838 20.1123 10.9092 25.9326 10.9092 33.1123ZM333.909 66.1123H10.9092H333.909ZM10.9092 66.1123V0.112305V66.1123ZM333.909 0.112305V66.1123V0.112305Z" fill="#005C99" mask="url(#path-1-inside-1_123_11)"/>
<g opacity="0.25" filter="url(#filter0_f_123_11)">
<mask id="path-3-inside-2_123_11" fill="white">
<path d="M10.9092 42.1323C10.9092 55.3761 21.6454 66.1123 34.8892 66.1123H309.929C323.173 66.1123 333.909 55.3761 333.909 42.1323V42.1323C333.909 28.8885 323.173 18.1523 309.929 18.1523H34.8892C21.6454 18.1523 10.9092 28.8885 10.9092 42.1323V42.1323Z"/>
</mask>
<path d="M10.9092 42.1323C10.9092 55.3761 21.6454 66.1123 34.8892 66.1123H309.929C323.173 66.1123 333.909 55.3761 333.909 42.1323V42.1323C333.909 28.8885 323.173 18.1523 309.929 18.1523H34.8892C21.6454 18.1523 10.9092 28.8885 10.9092 42.1323V42.1323Z" fill="#F3F8F2"/>
<path d="M10.9092 42.1323C10.9092 66.4218 30.5997 86.1123 54.8892 86.1123H289.929C314.219 86.1123 333.909 66.4218 333.909 42.1323C333.909 44.3304 323.173 46.1123 309.929 46.1123H34.8892C21.6454 46.1123 10.9092 44.3304 10.9092 42.1323ZM333.909 18.1523H10.9092H333.909ZM10.9092 18.1523V66.1123V18.1523ZM333.909 66.1123V18.1523V66.1123Z" fill="#005C99" mask="url(#path-3-inside-2_123_11)"/>
</g>
<path d="M87.5206 15.1523V7.57617H84.6905V6.5625H91.4991V7.57617H88.6573V15.1523H87.5206ZM92.6944 15.1523V6.5625H98.9053V7.57617H93.8311V10.207H98.5831V11.2148H93.8311V14.1387H99.1046V15.1523H92.6944ZM95.0381 6.03516L95.8174 4.39453H97.2003L95.9112 6.03516H95.0381ZM106.804 12.1406L107.94 12.4277C107.702 13.3613 107.273 14.0742 106.651 14.5664C106.034 15.0547 105.278 15.2988 104.384 15.2988C103.458 15.2988 102.704 15.1113 102.122 14.7363C101.544 14.3574 101.103 13.8105 100.798 13.0957C100.497 12.3809 100.347 11.6133 100.347 10.793C100.347 9.89844 100.517 9.11914 100.857 8.45508C101.2 7.78711 101.687 7.28125 102.315 6.9375C102.948 6.58984 103.644 6.41602 104.401 6.41602C105.261 6.41602 105.983 6.63477 106.569 7.07227C107.155 7.50977 107.564 8.125 107.794 8.91797L106.675 9.18164C106.476 8.55664 106.187 8.10156 105.808 7.81641C105.429 7.53125 104.952 7.38867 104.378 7.38867C103.718 7.38867 103.165 7.54688 102.72 7.86328C102.278 8.17969 101.968 8.60547 101.788 9.14062C101.608 9.67188 101.519 10.2207 101.519 10.7871C101.519 11.5176 101.624 12.1562 101.835 12.7031C102.05 13.2461 102.382 13.6523 102.831 13.9219C103.28 14.1914 103.767 14.3262 104.29 14.3262C104.927 14.3262 105.466 14.1426 105.907 13.7754C106.349 13.4082 106.648 12.8633 106.804 12.1406ZM109.335 15.1523V6.5625H110.501L115.013 13.3066V6.5625H116.103V15.1523H114.937L110.425 8.40234V15.1523H109.335ZM118.212 15.1523V6.5625H119.349V15.1523H118.212ZM127.487 12.1406L128.624 12.4277C128.386 13.3613 127.956 14.0742 127.335 14.5664C126.718 15.0547 125.962 15.2988 125.067 15.2988C124.142 15.2988 123.388 15.1113 122.806 14.7363C122.228 14.3574 121.786 13.8105 121.482 13.0957C121.181 12.3809 121.03 11.6133 121.03 10.793C121.03 9.89844 121.2 9.11914 121.54 8.45508C121.884 7.78711 122.37 7.28125 122.999 6.9375C123.632 6.58984 124.327 6.41602 125.085 6.41602C125.944 6.41602 126.667 6.63477 127.253 7.07227C127.839 7.50977 128.247 8.125 128.478 8.91797L127.358 9.18164C127.159 8.55664 126.87 8.10156 126.491 7.81641C126.112 7.53125 125.636 7.38867 125.062 7.38867C124.401 7.38867 123.849 7.54688 123.403 7.86328C122.962 8.17969 122.651 8.60547 122.472 9.14062C122.292 9.67188 122.202 10.2207 122.202 10.7871C122.202 11.5176 122.308 12.1562 122.519 12.7031C122.733 13.2461 123.065 13.6523 123.515 13.9219C123.964 14.1914 124.45 14.3262 124.974 14.3262C125.61 14.3262 126.149 14.1426 126.591 13.7754C127.032 13.4082 127.331 12.8633 127.487 12.1406ZM129.685 10.9688C129.685 9.54297 130.067 8.42773 130.833 7.62305C131.599 6.81445 132.587 6.41016 133.798 6.41016C134.591 6.41016 135.306 6.59961 135.942 6.97852C136.579 7.35742 137.064 7.88672 137.396 8.56641C137.732 9.24219 137.899 10.0098 137.899 10.8691C137.899 11.7402 137.724 12.5195 137.372 13.207C137.021 13.8945 136.523 14.416 135.878 14.7715C135.233 15.123 134.538 15.2988 133.792 15.2988C132.983 15.2988 132.261 15.1035 131.624 14.7129C130.987 14.3223 130.505 13.7891 130.177 13.1133C129.849 12.4375 129.685 11.7227 129.685 10.9688ZM130.857 10.9863C130.857 12.0215 131.134 12.8379 131.689 13.4355C132.247 14.0293 132.946 14.3262 133.786 14.3262C134.642 14.3262 135.345 14.0254 135.896 13.4238C136.45 12.8223 136.728 11.9688 136.728 10.8633C136.728 10.1641 136.608 9.55469 136.37 9.03516C136.136 8.51172 135.79 8.10742 135.333 7.82227C134.88 7.5332 134.37 7.38867 133.804 7.38867C132.999 7.38867 132.306 7.66602 131.724 8.2207C131.146 8.77148 130.857 9.69336 130.857 10.9863ZM138.983 12.3926L140.056 12.2988C140.107 12.7285 140.224 13.082 140.407 13.3594C140.595 13.6328 140.884 13.8555 141.274 14.0273C141.665 14.1953 142.105 14.2793 142.593 14.2793C143.026 14.2793 143.409 14.2148 143.741 14.0859C144.073 13.957 144.319 13.7812 144.48 13.5586C144.644 13.332 144.726 13.0859 144.726 12.8203C144.726 12.5508 144.648 12.3164 144.491 12.1172C144.335 11.9141 144.077 11.7441 143.718 11.6074C143.487 11.5176 142.978 11.3789 142.189 11.1914C141.399 11 140.847 10.8203 140.53 10.6523C140.12 10.4375 139.814 10.1719 139.61 9.85547C139.411 9.53516 139.312 9.17773 139.312 8.7832C139.312 8.34961 139.435 7.94531 139.681 7.57031C139.927 7.19141 140.286 6.9043 140.759 6.70898C141.232 6.51367 141.757 6.41602 142.335 6.41602C142.972 6.41602 143.532 6.51953 144.017 6.72656C144.505 6.92969 144.88 7.23047 145.142 7.62891C145.403 8.02734 145.544 8.47852 145.564 8.98242L144.474 9.06445C144.415 8.52148 144.216 8.11133 143.876 7.83398C143.54 7.55664 143.042 7.41797 142.382 7.41797C141.694 7.41797 141.192 7.54492 140.876 7.79883C140.564 8.04883 140.407 8.35156 140.407 8.70703C140.407 9.01562 140.519 9.26953 140.741 9.46875C140.96 9.66797 141.53 9.87305 142.452 10.084C143.378 10.291 144.013 10.4727 144.357 10.6289C144.857 10.8594 145.226 11.1523 145.464 11.5078C145.702 11.8594 145.821 12.2656 145.821 12.7266C145.821 13.1836 145.69 13.6152 145.429 14.0215C145.167 14.4238 144.79 14.7383 144.298 14.9648C143.81 15.1875 143.259 15.2988 142.646 15.2988C141.868 15.2988 141.216 15.1855 140.689 14.959C140.165 14.7324 139.753 14.3926 139.452 13.9395C139.155 13.4824 138.999 12.9668 138.983 12.3926ZM146.829 12.5742V11.5137H150.069V12.5742H146.829ZM150.427 15.1523L153.726 6.5625H154.95L158.466 15.1523H157.171L156.169 12.5508H152.577L151.634 15.1523H150.427ZM152.905 11.625H155.817L154.921 9.24609C154.648 8.52344 154.444 7.92969 154.312 7.46484C154.202 8.01562 154.048 8.5625 153.849 9.10547L152.905 11.625ZM159.374 15.1523V6.5625H162.333C163.001 6.5625 163.511 6.60352 163.862 6.68555C164.355 6.79883 164.774 7.00391 165.122 7.30078C165.575 7.68359 165.913 8.17383 166.136 8.77148C166.362 9.36523 166.476 10.0449 166.476 10.8105C166.476 11.4629 166.399 12.041 166.247 12.5449C166.095 13.0488 165.899 13.4668 165.661 13.7988C165.423 14.127 165.161 14.3867 164.876 14.5781C164.595 14.7656 164.253 14.9082 163.851 15.0059C163.452 15.1035 162.993 15.1523 162.474 15.1523H159.374ZM160.511 14.1387H162.345C162.911 14.1387 163.355 14.0859 163.675 13.9805C163.999 13.875 164.257 13.7266 164.448 13.5352C164.718 13.2656 164.927 12.9043 165.075 12.4512C165.228 11.9941 165.304 11.4414 165.304 10.793C165.304 9.89453 165.155 9.20508 164.858 8.72461C164.565 8.24023 164.208 7.91602 163.786 7.75195C163.482 7.63477 162.991 7.57617 162.315 7.57617H160.511V14.1387ZM168.011 15.1523V6.5625H169.722L171.755 12.6445C171.942 13.2109 172.079 13.6348 172.165 13.916C172.263 13.6035 172.415 13.1445 172.622 12.5391L174.679 6.5625H176.208V15.1523H175.112V7.96289L172.616 15.1523H171.591L169.107 7.83984V15.1523H168.011ZM178.235 15.1523V6.5625H179.372V15.1523H178.235ZM181.37 15.1523V6.5625H182.536L187.048 13.3066V6.5625H188.138V15.1523H186.972L182.46 8.40234V15.1523H181.37ZM190.247 15.1523V6.5625H191.384V15.1523H190.247ZM193.007 12.3926L194.079 12.2988C194.13 12.7285 194.247 13.082 194.431 13.3594C194.618 13.6328 194.907 13.8555 195.298 14.0273C195.689 14.1953 196.128 14.2793 196.616 14.2793C197.05 14.2793 197.433 14.2148 197.765 14.0859C198.097 13.957 198.343 13.7812 198.503 13.5586C198.667 13.332 198.749 13.0859 198.749 12.8203C198.749 12.5508 198.671 12.3164 198.515 12.1172C198.358 11.9141 198.101 11.7441 197.741 11.6074C197.511 11.5176 197.001 11.3789 196.212 11.1914C195.423 11 194.87 10.8203 194.554 10.6523C194.144 10.4375 193.837 10.1719 193.634 9.85547C193.435 9.53516 193.335 9.17773 193.335 8.7832C193.335 8.34961 193.458 7.94531 193.704 7.57031C193.95 7.19141 194.31 6.9043 194.782 6.70898C195.255 6.51367 195.78 6.41602 196.358 6.41602C196.995 6.41602 197.556 6.51953 198.04 6.72656C198.528 6.92969 198.903 7.23047 199.165 7.62891C199.427 8.02734 199.567 8.47852 199.587 8.98242L198.497 9.06445C198.439 8.52148 198.239 8.11133 197.899 7.83398C197.564 7.55664 197.065 7.41797 196.405 7.41797C195.718 7.41797 195.216 7.54492 194.899 7.79883C194.587 8.04883 194.431 8.35156 194.431 8.70703C194.431 9.01562 194.542 9.26953 194.765 9.46875C194.983 9.66797 195.554 9.87305 196.476 10.084C197.401 10.291 198.036 10.4727 198.38 10.6289C198.88 10.8594 199.249 11.1523 199.487 11.5078C199.726 11.8594 199.845 12.2656 199.845 12.7266C199.845 13.1836 199.714 13.6152 199.452 14.0215C199.19 14.4238 198.814 14.7383 198.321 14.9648C197.833 15.1875 197.282 15.2988 196.669 15.2988C195.892 15.2988 195.239 15.1855 194.712 14.959C194.189 14.7324 193.776 14.3926 193.476 13.9395C193.179 13.4824 193.023 12.9668 193.007 12.3926ZM203.583 15.1523V7.57617H200.753V6.5625H207.562V7.57617H204.72V15.1523H203.583ZM208.751 15.1523V6.5625H212.56C213.325 6.5625 213.907 6.64062 214.306 6.79688C214.704 6.94922 215.023 7.2207 215.261 7.61133C215.499 8.00195 215.618 8.43359 215.618 8.90625C215.618 9.51562 215.421 10.0293 215.026 10.4473C214.632 10.8652 214.023 11.1309 213.198 11.2441C213.499 11.3887 213.728 11.5312 213.884 11.6719C214.216 11.9766 214.53 12.3574 214.827 12.8145L216.321 15.1523H214.892L213.755 13.3652C213.423 12.8496 213.149 12.4551 212.935 12.1816C212.72 11.9082 212.526 11.7168 212.355 11.6074C212.187 11.498 212.015 11.4219 211.839 11.3789C211.71 11.3516 211.499 11.3379 211.206 11.3379H209.888V15.1523H208.751ZM209.888 10.3535H212.331C212.851 10.3535 213.257 10.3008 213.55 10.1953C213.843 10.0859 214.065 9.91406 214.218 9.67969C214.37 9.44141 214.446 9.18359 214.446 8.90625C214.446 8.5 214.298 8.16602 214.001 7.9043C213.708 7.64258 213.243 7.51172 212.607 7.51172H209.888V10.3535ZM216.462 15.1523L219.761 6.5625H220.985L224.501 15.1523H223.206L222.204 12.5508H218.612L217.669 15.1523H216.462ZM218.94 11.625H221.853L220.956 9.24609C220.683 8.52344 220.48 7.92969 220.347 7.46484C220.237 8.01562 220.083 8.5625 219.884 9.10547L218.94 11.625ZM226.704 15.1523V7.57617H223.874V6.5625H230.683V7.57617H227.841V15.1523H226.704ZM232.048 15.1523V6.5625H233.185V15.1523H232.048ZM237.649 15.1523L234.321 6.5625H235.552L237.784 12.8027C237.964 13.3027 238.114 13.7715 238.235 14.209C238.368 13.7402 238.523 13.2715 238.698 12.8027L241.019 6.5625H242.179L238.815 15.1523H237.649ZM242.853 10.9688C242.853 9.54297 243.235 8.42773 244.001 7.62305C244.767 6.81445 245.755 6.41016 246.966 6.41016C247.759 6.41016 248.474 6.59961 249.11 6.97852C249.747 7.35742 250.232 7.88672 250.564 8.56641C250.899 9.24219 251.067 10.0098 251.067 10.8691C251.067 11.7402 250.892 12.5195 250.54 13.207C250.189 13.8945 249.69 14.416 249.046 14.7715C248.401 15.123 247.706 15.2988 246.96 15.2988C246.151 15.2988 245.429 15.1035 244.792 14.7129C244.155 14.3223 243.673 13.7891 243.345 13.1133C243.017 12.4375 242.853 11.7227 242.853 10.9688ZM244.024 10.9863C244.024 12.0215 244.302 12.8379 244.857 13.4355C245.415 14.0293 246.114 14.3262 246.954 14.3262C247.81 14.3262 248.513 14.0254 249.064 13.4238C249.618 12.8223 249.896 11.9688 249.896 10.8633C249.896 10.1641 249.776 9.55469 249.538 9.03516C249.304 8.51172 248.958 8.10742 248.501 7.82227C248.048 7.5332 247.538 7.38867 246.972 7.38867C246.167 7.38867 245.474 7.66602 244.892 8.2207C244.314 8.77148 244.024 9.69336 244.024 10.9863ZM252.151 12.3926L253.224 12.2988C253.274 12.7285 253.392 13.082 253.575 13.3594C253.763 13.6328 254.052 13.8555 254.442 14.0273C254.833 14.1953 255.273 14.2793 255.761 14.2793C256.194 14.2793 256.577 14.2148 256.909 14.0859C257.241 13.957 257.487 13.7812 257.648 13.5586C257.812 13.332 257.894 13.0859 257.894 12.8203C257.894 12.5508 257.815 12.3164 257.659 12.1172C257.503 11.9141 257.245 11.7441 256.886 11.6074C256.655 11.5176 256.146 11.3789 255.357 11.1914C254.567 11 254.015 10.8203 253.698 10.6523C253.288 10.4375 252.982 10.1719 252.778 9.85547C252.579 9.53516 252.48 9.17773 252.48 8.7832C252.48 8.34961 252.603 7.94531 252.849 7.57031C253.095 7.19141 253.454 6.9043 253.927 6.70898C254.399 6.51367 254.925 6.41602 255.503 6.41602C256.14 6.41602 256.7 6.51953 257.185 6.72656C257.673 6.92969 258.048 7.23047 258.31 7.62891C258.571 8.02734 258.712 8.47852 258.732 8.98242L257.642 9.06445C257.583 8.52148 257.384 8.11133 257.044 7.83398C256.708 7.55664 256.21 7.41797 255.55 7.41797C254.862 7.41797 254.36 7.54492 254.044 7.79883C253.732 8.04883 253.575 8.35156 253.575 8.70703C253.575 9.01562 253.687 9.26953 253.909 9.46875C254.128 9.66797 254.698 9.87305 255.62 10.084C256.546 10.291 257.181 10.4727 257.524 10.6289C258.024 10.8594 258.394 11.1523 258.632 11.5078C258.87 11.8594 258.989 12.2656 258.989 12.7266C258.989 13.1836 258.858 13.6152 258.597 14.0215C258.335 14.4238 257.958 14.7383 257.466 14.9648C256.978 15.1875 256.427 15.2988 255.814 15.2988C255.036 15.2988 254.384 15.1855 253.857 14.959C253.333 14.7324 252.921 14.3926 252.62 13.9395C252.323 13.4824 252.167 12.9668 252.151 12.3926Z" fill="white"/>
<defs>
<filter id="filter0_f_123_11" x="0.712541" y="7.95564" width="343.393" height="68.3534" filterUnits="userSpaceOnUse" color-interpolation-filters="sRGB">
<feFlood flood-opacity="0" result="BackgroundImageFix"/>
<feBlend mode="normal" in="SourceGraphic" in2="BackgroundImageFix" result="shape"/>
<feGaussianBlur stdDeviation="5.09835" result="effect1_foregroundBlur_123_11"/>
</filter>
</defs>
</svg>
