<svg width="218" height="100" viewBox="0 0 218 100" fill="none" xmlns="http://www.w3.org/2000/svg">
<g clip-path="url(#clip0_115_7)">
<g filter="url(#filter0_b_115_7)">
<path d="M0 100H218V7.04199H0V100Z" fill="url(#paint0_linear_115_7)"/>
</g>
<path d="M0 0H218V26.4038H0V0Z" fill="#D9D9D9"/>
<path d="M93.7744 18.2021V9.87598H90.8008V8.18066H98.7646V9.87598H95.7979V18.2021H93.7744ZM108.075 18.2021H105.874L104.999 15.9258H100.993L100.166 18.2021H98.0195L101.923 8.18066H104.062L108.075 18.2021ZM104.35 14.2373L102.969 10.5186L101.615 14.2373H104.35ZM109.155 18.2021V8.18066H116.586V9.87598H111.179V12.0977H116.21V13.7861H111.179V16.5137H116.777V18.2021H109.155ZM117.98 14.9414L119.949 14.75C120.068 15.4108 120.307 15.8962 120.667 16.2061C121.032 16.516 121.521 16.6709 122.137 16.6709C122.788 16.6709 123.278 16.5342 123.606 16.2607C123.939 15.9827 124.105 15.6592 124.105 15.29C124.105 15.0531 124.035 14.8525 123.894 14.6885C123.757 14.5199 123.515 14.374 123.169 14.251C122.932 14.1689 122.392 14.0231 121.549 13.8135C120.464 13.5446 119.703 13.2142 119.266 12.8223C118.65 12.2708 118.343 11.5986 118.343 10.8057C118.343 10.2952 118.486 9.81901 118.773 9.37695C119.065 8.93034 119.482 8.59082 120.024 8.3584C120.571 8.12598 121.23 8.00977 122 8.00977C123.258 8.00977 124.203 8.28548 124.837 8.83691C125.475 9.38835 125.81 10.1243 125.842 11.0449L123.818 11.1338C123.732 10.6188 123.545 10.2497 123.258 10.0264C122.975 9.7985 122.549 9.68457 121.979 9.68457C121.392 9.68457 120.931 9.80534 120.599 10.0469C120.384 10.2018 120.277 10.4092 120.277 10.6689C120.277 10.9059 120.378 11.1087 120.578 11.2773C120.833 11.4915 121.453 11.7148 122.438 11.9473C123.422 12.1797 124.149 12.4212 124.618 12.6719C125.092 12.918 125.461 13.2575 125.726 13.6904C125.994 14.1188 126.129 14.6497 126.129 15.2832C126.129 15.8574 125.969 16.3952 125.65 16.8965C125.331 17.3978 124.88 17.7715 124.297 18.0176C123.714 18.2591 122.987 18.3799 122.116 18.3799C120.849 18.3799 119.876 18.0882 119.197 17.5049C118.518 16.917 118.113 16.0625 117.98 14.9414Z" fill="#FF6600"/>
</g>
<defs>
<filter id="filter0_b_115_7" x="-50" y="-42.958" width="318" height="192.958" filterUnits="userSpaceOnUse" color-interpolation-filters="sRGB">
<feFlood flood-opacity="0" result="BackgroundImageFix"/>
<feGaussianBlur in="BackgroundImageFix" stdDeviation="25"/>
<feComposite in2="SourceAlpha" operator="in" result="effect1_backgroundBlur_115_7"/>
<feBlend mode="normal" in="SourceGraphic" in2="effect1_backgroundBlur_115_7" result="shape"/>
</filter>
<linearGradient id="paint0_linear_115_7" x1="-1.81379e-06" y1="76.4329" x2="160.875" y2="-60.2121" gradientUnits="userSpaceOnUse">
<stop stop-color="#005C8B"/>
<stop offset="1" stop-color="#083D77"/>
</linearGradient>
<clipPath id="clip0_115_7">
<rect width="218" height="100" fill="white"/>
</clipPath>
</defs>
</svg>
