<svg width="218" height="100" viewBox="0 0 218 100" fill="none" xmlns="http://www.w3.org/2000/svg">
<g clip-path="url(#clip0_121_2)">
<g filter="url(#filter0_b_121_2)">
<path d="M0 100H218V7.04199H0V100Z" fill="url(#paint0_linear_121_2)"/>
</g>
<path d="M0 0H218V26.4038H0V0Z" fill="#D9D9D9"/>
<path d="M71.0117 8.18066H74.71C75.5439 8.18066 76.1797 8.24447 76.6172 8.37207C77.2051 8.54525 77.7087 8.85286 78.1279 9.29492C78.5472 9.73698 78.8662 10.2793 79.085 10.9219C79.3037 11.5599 79.4131 12.3483 79.4131 13.2871C79.4131 14.112 79.3105 14.8229 79.1055 15.4199C78.8548 16.1491 78.4971 16.7393 78.0322 17.1904C77.6813 17.5322 77.2074 17.7988 76.6104 17.9902C76.1637 18.1315 75.5667 18.2021 74.8193 18.2021H71.0117V8.18066ZM73.0352 9.87598V16.5137H74.5459C75.111 16.5137 75.5189 16.4818 75.7695 16.418C76.0977 16.3359 76.3688 16.1969 76.583 16.001C76.8018 15.805 76.9795 15.4837 77.1162 15.0371C77.2529 14.5859 77.3213 13.973 77.3213 13.1982C77.3213 12.4235 77.2529 11.8288 77.1162 11.4141C76.9795 10.9993 76.7881 10.6758 76.542 10.4434C76.2959 10.2109 75.9837 10.0537 75.6055 9.97168C75.3229 9.90788 74.7692 9.87598 73.9443 9.87598H73.0352ZM80.7256 13.2529C80.7256 12.2321 80.8783 11.3753 81.1836 10.6826C81.4115 10.1722 81.7214 9.71419 82.1133 9.30859C82.5098 8.90299 82.9427 8.60221 83.4121 8.40625C84.0365 8.14193 84.7565 8.00977 85.5723 8.00977C87.0488 8.00977 88.2292 8.46777 89.1133 9.38379C90.002 10.2998 90.4463 11.5736 90.4463 13.2051C90.4463 14.8229 90.0065 16.0898 89.127 17.0059C88.2474 17.9173 87.0716 18.373 85.5996 18.373C84.1094 18.373 82.9245 17.9196 82.0449 17.0127C81.1654 16.1012 80.7256 14.848 80.7256 13.2529ZM82.8105 13.1846C82.8105 14.3193 83.0726 15.1807 83.5967 15.7686C84.1208 16.3519 84.7861 16.6436 85.5928 16.6436C86.3994 16.6436 87.0602 16.3542 87.5752 15.7754C88.0947 15.1921 88.3545 14.3193 88.3545 13.1572C88.3545 12.0088 88.1016 11.152 87.5957 10.5869C87.0944 10.0218 86.4268 9.73926 85.5928 9.73926C84.7588 9.73926 84.0866 10.0264 83.5762 10.6006C83.0658 11.1702 82.8105 12.0316 82.8105 13.1846ZM98.4443 14.5176L100.406 15.1396C100.105 16.2334 99.6042 17.0469 98.9023 17.5801C98.2051 18.1087 97.3187 18.373 96.2432 18.373C94.9124 18.373 93.8187 17.9196 92.9619 17.0127C92.1051 16.1012 91.6768 14.8571 91.6768 13.2803C91.6768 11.6123 92.1074 10.318 92.9688 9.39746C93.8301 8.47233 94.9626 8.00977 96.3662 8.00977C97.5921 8.00977 98.5879 8.37207 99.3535 9.09668C99.8092 9.52507 100.151 10.1403 100.379 10.9424L98.376 11.4209C98.2575 10.9014 98.0091 10.4912 97.6309 10.1904C97.2572 9.88965 96.8014 9.73926 96.2637 9.73926C95.5208 9.73926 94.917 10.0059 94.4521 10.5391C93.9919 11.0723 93.7617 11.9359 93.7617 13.1299C93.7617 14.3968 93.9896 15.2992 94.4453 15.8369C94.901 16.3747 95.4935 16.6436 96.2227 16.6436C96.7604 16.6436 97.223 16.4727 97.6104 16.1309C97.9977 15.7891 98.2757 15.2513 98.4443 14.5176ZM102.149 18.2021V8.18066H109.58V9.87598H104.173V12.0977H109.204V13.7861H104.173V16.5137H109.771V18.2021H102.149ZM111.508 18.2021V8.18066H113.477L117.578 14.873V8.18066H119.458V18.2021H117.428L113.388 11.667V18.2021H111.508ZM123.86 18.2021V9.87598H120.887V8.18066H128.851V9.87598H125.884V18.2021H123.86ZM130.163 18.2021V8.18066H137.594V9.87598H132.187V12.0977H137.218V13.7861H132.187V16.5137H137.785V18.2021H130.163ZM138.988 14.9414L140.957 14.75C141.076 15.4108 141.315 15.8962 141.675 16.2061C142.039 16.516 142.529 16.6709 143.145 16.6709C143.796 16.6709 144.286 16.5342 144.614 16.2607C144.947 15.9827 145.113 15.6592 145.113 15.29C145.113 15.0531 145.043 14.8525 144.901 14.6885C144.765 14.5199 144.523 14.374 144.177 14.251C143.94 14.1689 143.4 14.0231 142.557 13.8135C141.472 13.5446 140.711 13.2142 140.273 12.8223C139.658 12.2708 139.351 11.5986 139.351 10.8057C139.351 10.2952 139.494 9.81901 139.781 9.37695C140.073 8.93034 140.49 8.59082 141.032 8.3584C141.579 8.12598 142.238 8.00977 143.008 8.00977C144.266 8.00977 145.211 8.28548 145.845 8.83691C146.483 9.38835 146.818 10.1243 146.85 11.0449L144.826 11.1338C144.74 10.6188 144.553 10.2497 144.266 10.0264C143.983 9.7985 143.557 9.68457 142.987 9.68457C142.399 9.68457 141.939 9.80534 141.606 10.0469C141.392 10.2018 141.285 10.4092 141.285 10.6689C141.285 10.9059 141.385 11.1087 141.586 11.2773C141.841 11.4915 142.461 11.7148 143.445 11.9473C144.43 12.1797 145.157 12.4212 145.626 12.6719C146.1 12.918 146.469 13.2575 146.733 13.6904C147.002 14.1188 147.137 14.6497 147.137 15.2832C147.137 15.8574 146.977 16.3952 146.658 16.8965C146.339 17.3978 145.888 17.7715 145.305 18.0176C144.721 18.2591 143.994 18.3799 143.124 18.3799C141.857 18.3799 140.884 18.0882 140.205 17.5049C139.526 16.917 139.12 16.0625 138.988 14.9414Z" fill="#FF6600"/>
</g>
<defs>
<filter id="filter0_b_121_2" x="-50" y="-42.958" width="318" height="192.958" filterUnits="userSpaceOnUse" color-interpolation-filters="sRGB">
<feFlood flood-opacity="0" result="BackgroundImageFix"/>
<feGaussianBlur in="BackgroundImageFix" stdDeviation="25"/>
<feComposite in2="SourceAlpha" operator="in" result="effect1_backgroundBlur_121_2"/>
<feBlend mode="normal" in="SourceGraphic" in2="effect1_backgroundBlur_121_2" result="shape"/>
</filter>
<linearGradient id="paint0_linear_121_2" x1="-1.81379e-06" y1="76.4329" x2="160.875" y2="-60.2121" gradientUnits="userSpaceOnUse">
<stop stop-color="#005C8B"/>
<stop offset="1" stop-color="#083D77"/>
</linearGradient>
<clipPath id="clip0_121_2">
<rect width="218" height="100" fill="white"/>
</clipPath>
</defs>
</svg>
