<svg width="218" height="100" viewBox="0 0 218 100" fill="none" xmlns="http://www.w3.org/2000/svg">
<g clip-path="url(#clip0_128_23)">
<g filter="url(#filter0_b_128_23)">
<path d="M0 100H218V7.04199H0V100Z" fill="url(#paint0_linear_128_23)"/>
</g>
<path d="M0 0H218V26.4038H0V0Z" fill="#D9D9D9"/>
<path d="M62.5186 18.2021V8.18066H69.9492V9.87598H64.542V12.0977H69.5732V13.7861H64.542V16.5137H70.1406V18.2021H62.5186ZM71.3438 14.9414L73.3125 14.75C73.431 15.4108 73.6702 15.8962 74.0303 16.2061C74.3949 16.516 74.8848 16.6709 75.5 16.6709C76.1517 16.6709 76.6416 16.5342 76.9697 16.2607C77.3024 15.9827 77.4688 15.6592 77.4688 15.29C77.4688 15.0531 77.3981 14.8525 77.2568 14.6885C77.1201 14.5199 76.8786 14.374 76.5322 14.251C76.2952 14.1689 75.7552 14.0231 74.9121 13.8135C73.8275 13.5446 73.0664 13.2142 72.6289 12.8223C72.0137 12.2708 71.7061 11.5986 71.7061 10.8057C71.7061 10.2952 71.8496 9.81901 72.1367 9.37695C72.4284 8.93034 72.8454 8.59082 73.3877 8.3584C73.9346 8.12598 74.5931 8.00977 75.3633 8.00977C76.6211 8.00977 77.5667 8.28548 78.2002 8.83691C78.8382 9.38835 79.1732 10.1243 79.2051 11.0449L77.1816 11.1338C77.0951 10.6188 76.9082 10.2497 76.6211 10.0264C76.3385 9.7985 75.9124 9.68457 75.3428 9.68457C74.7549 9.68457 74.2946 9.80534 73.9619 10.0469C73.7477 10.2018 73.6406 10.4092 73.6406 10.6689C73.6406 10.9059 73.7409 11.1087 73.9414 11.2773C74.1966 11.4915 74.8164 11.7148 75.8008 11.9473C76.7852 12.1797 77.512 12.4212 77.9814 12.6719C78.4554 12.918 78.8245 13.2575 79.0889 13.6904C79.3577 14.1188 79.4922 14.6497 79.4922 15.2832C79.4922 15.8574 79.3327 16.3952 79.0137 16.8965C78.6947 17.3978 78.2435 17.7715 77.6602 18.0176C77.0768 18.2591 76.3499 18.3799 75.4795 18.3799C74.2126 18.3799 73.2396 18.0882 72.5605 17.5049C71.8815 16.917 71.4759 16.0625 71.3438 14.9414ZM83.4502 18.2021V9.87598H80.4766V8.18066H88.4404V9.87598H85.4736V18.2021H83.4502ZM89.7393 8.18066H91.7627V13.6084C91.7627 14.4697 91.7878 15.028 91.8379 15.2832C91.9245 15.6934 92.1296 16.0238 92.4531 16.2744C92.7812 16.5205 93.2279 16.6436 93.793 16.6436C94.3672 16.6436 94.8001 16.5273 95.0918 16.2949C95.3835 16.0579 95.5589 15.7686 95.6182 15.4268C95.6774 15.085 95.707 14.5176 95.707 13.7246V8.18066H97.7305V13.4443C97.7305 14.6475 97.6758 15.4974 97.5664 15.9941C97.457 16.4909 97.2542 16.9102 96.958 17.252C96.6663 17.5938 96.2744 17.8672 95.7822 18.0723C95.29 18.2728 94.6475 18.373 93.8545 18.373C92.8975 18.373 92.1706 18.2637 91.6738 18.0449C91.1816 17.8216 90.792 17.5345 90.5049 17.1836C90.2178 16.8281 90.0286 16.4567 89.9375 16.0693C89.8053 15.4951 89.7393 14.6475 89.7393 13.5264V8.18066ZM99.8633 8.18066H103.562C104.396 8.18066 105.031 8.24447 105.469 8.37207C106.057 8.54525 106.56 8.85286 106.979 9.29492C107.399 9.73698 107.718 10.2793 107.937 10.9219C108.155 11.5599 108.265 12.3483 108.265 13.2871C108.265 14.112 108.162 14.8229 107.957 15.4199C107.706 16.1491 107.349 16.7393 106.884 17.1904C106.533 17.5322 106.059 17.7988 105.462 17.9902C105.015 18.1315 104.418 18.2021 103.671 18.2021H99.8633V8.18066ZM101.887 9.87598V16.5137H103.397C103.963 16.5137 104.37 16.4818 104.621 16.418C104.949 16.3359 105.22 16.1969 105.435 16.001C105.653 15.805 105.831 15.4837 105.968 15.0371C106.104 14.5859 106.173 13.973 106.173 13.1982C106.173 12.4235 106.104 11.8288 105.968 11.4141C105.831 10.9993 105.64 10.6758 105.394 10.4434C105.147 10.2109 104.835 10.0537 104.457 9.97168C104.174 9.90788 103.621 9.87598 102.796 9.87598H101.887ZM119.024 18.2021H116.823L115.948 15.9258H111.942L111.115 18.2021H108.969L112.872 8.18066H115.012L119.024 18.2021ZM115.299 14.2373L113.918 10.5186L112.564 14.2373H115.299ZM120.125 18.2021V8.18066H122.094L126.195 14.873V8.18066H128.075V18.2021H126.045L122.005 11.667V18.2021H120.125ZM132.478 18.2021V9.87598H129.504V8.18066H137.468V9.87598H134.501V18.2021H132.478ZM138.78 18.2021V8.18066H146.211V9.87598H140.804V12.0977H145.835V13.7861H140.804V16.5137H146.402V18.2021H138.78ZM147.605 14.9414L149.574 14.75C149.693 15.4108 149.932 15.8962 150.292 16.2061C150.657 16.516 151.146 16.6709 151.762 16.6709C152.413 16.6709 152.903 16.5342 153.231 16.2607C153.564 15.9827 153.73 15.6592 153.73 15.29C153.73 15.0531 153.66 14.8525 153.519 14.6885C153.382 14.5199 153.14 14.374 152.794 14.251C152.557 14.1689 152.017 14.0231 151.174 13.8135C150.089 13.5446 149.328 13.2142 148.891 12.8223C148.275 12.2708 147.968 11.5986 147.968 10.8057C147.968 10.2952 148.111 9.81901 148.398 9.37695C148.69 8.93034 149.107 8.59082 149.649 8.3584C150.196 8.12598 150.855 8.00977 151.625 8.00977C152.883 8.00977 153.828 8.28548 154.462 8.83691C155.1 9.38835 155.435 10.1243 155.467 11.0449L153.443 11.1338C153.357 10.6188 153.17 10.2497 152.883 10.0264C152.6 9.7985 152.174 9.68457 151.604 9.68457C151.017 9.68457 150.556 9.80534 150.224 10.0469C150.009 10.2018 149.902 10.4092 149.902 10.6689C149.902 10.9059 150.003 11.1087 150.203 11.2773C150.458 11.4915 151.078 11.7148 152.062 11.9473C153.047 12.1797 153.774 12.4212 154.243 12.6719C154.717 12.918 155.086 13.2575 155.351 13.6904C155.619 14.1188 155.754 14.6497 155.754 15.2832C155.754 15.8574 155.594 16.3952 155.275 16.8965C154.956 17.3978 154.505 17.7715 153.922 18.0176C153.339 18.2591 152.612 18.3799 151.741 18.3799C150.474 18.3799 149.501 18.0882 148.822 17.5049C148.143 16.917 147.738 16.0625 147.605 14.9414Z" fill="#FF6600"/>
</g>
<defs>
<filter id="filter0_b_128_23" x="-50" y="-42.958" width="318" height="192.958" filterUnits="userSpaceOnUse" color-interpolation-filters="sRGB">
<feFlood flood-opacity="0" result="BackgroundImageFix"/>
<feGaussianBlur in="BackgroundImageFix" stdDeviation="25"/>
<feComposite in2="SourceAlpha" operator="in" result="effect1_backgroundBlur_128_23"/>
<feBlend mode="normal" in="SourceGraphic" in2="effect1_backgroundBlur_128_23" result="shape"/>
</filter>
<linearGradient id="paint0_linear_128_23" x1="-1.81379e-06" y1="76.4329" x2="160.875" y2="-60.2121" gradientUnits="userSpaceOnUse">
<stop stop-color="#005C8B"/>
<stop offset="1" stop-color="#083D77"/>
</linearGradient>
<clipPath id="clip0_128_23">
<rect width="218" height="100" fill="white"/>
</clipPath>
</defs>
</svg>
